<?xml version="1.0" encoding="utf-8"?>
<!-- Generator: Adobe Illustrator 27.0.1, SVG Export Plug-In . SVG Version: 6.00 Build 0)  -->
<svg version="1.1" xmlns="http://www.w3.org/2000/svg" xmlns:xlink="http://www.w3.org/1999/xlink" x="0px" y="0px"
	 viewBox="0 0 519.74 106.83" style="enable-background:new 0 0 519.74 106.83;" xml:space="preserve">
<style type="text/css">
	.st0{display:none;}
	.st1{display:inline;}
	.st2{fill:none;stroke:#000000;stroke-width:9.1395;stroke-miterlimit:10;}
	.st3{stroke:#000000;stroke-width:1.2889;stroke-miterlimit:10;}
	.st4{fill:none;stroke:#2A173A;stroke-width:9.1395;stroke-miterlimit:10;}
	.st5{fill:none;stroke:#2A173A;stroke-miterlimit:10;}
	.st6{fill:#2C183D;}
</style>
<g id="Capa_11" class="st0">
	<g class="st1">
		<g>
			<path class="st2" d="M120.06-16.21l42.7-42.2l37.13,38.27L156.26,21.7c0,0-11.8,11.33-25.87-2.5L51.95-58.41L15.47-22.29
				l78.44,79.87c0,0,13.11,12.87,0.72,25.03l-42.2,42.92L15.47,87.15L54.44,48.8"/>
			
				<rect x="133.22" y="59.41" transform="matrix(0.7071 -0.7071 0.7071 0.7071 -14.2384 138.7631)" class="st2" width="54.32" height="54.32"/>
		</g>
		<g>
			<path class="st3" d="M21.39,165.24l-6.59-8.09l-3.98,4.02v4.07H9.64v-16.01h1.19v10.52l10.2-10.52h1.62l-7,7.07l7.29,8.94H21.39z
				"/>
			<path class="st3" d="M60.44,165.24v-16.01h1.19v16.01H60.44z"/>
			<path class="st3" d="M101.01,165.24v-16.01h1.19v16.01H101.01z"/>
			<path class="st3" d="M141.41,165.24v-16.01h11.39v1.08h-10.2v6.33h9.17v1.07h-9.17v6.45h10.31v1.08H141.41z"/>
			<path class="st3" d="M202.58,165.24l-5.69-7.39l-5.67,7.39h-1.39l6.38-8.16l-6.15-7.84h1.42l5.47,7.04l5.44-7.04h1.39l-6.13,7.82
				l6.36,8.19H202.58z"/>
		</g>
	</g>
	<g class="st1">
		<path class="st4" d="M426.17-16.21l42.7-42.2L506-20.15L462.37,21.7c0,0-11.8,11.33-25.87-2.5l-78.44-77.61l-36.48,36.12
			l78.44,79.87c0,0,13.11,12.87,0.72,25.03l-42.2,42.92l-36.96-38.39l38.97-38.34"/>
		
			<rect x="439.33" y="59.41" transform="matrix(0.7071 -0.7071 0.7071 0.7071 75.4187 355.2145)" class="st4" width="54.32" height="54.32"/>
	</g>
	<g class="st1">
		<path class="st5" d="M327.5,165.24l-6.59-8.09l-3.98,4.02v4.07h-1.19v-16.01h1.19v10.52l10.2-10.52h1.62l-7,7.07l7.29,8.94H327.5z
			"/>
		<path class="st5" d="M366.55,165.24v-16.01h1.19v16.01H366.55z"/>
		<path class="st5" d="M407.12,165.24v-16.01h1.19v16.01H407.12z"/>
		<path class="st5" d="M447.52,165.24v-16.01h11.39v1.08h-10.2v6.33h9.17v1.07h-9.17v6.45h10.31v1.08H447.52z"/>
		<path class="st5" d="M508.69,165.24l-5.69-7.39l-5.67,7.39h-1.39l6.38-8.16l-6.15-7.84h1.42l5.47,7.04l5.44-7.04h1.39l-6.13,7.82
			l6.36,8.19H508.69z"/>
	</g>
</g>
<g id="Capa_2">
	<g>
		<g>
			<path class="st6" d="M27.77,102.24L4.81,79.95l22.38-20.57l3.34,3.17L11.51,80.04l16.3,15.82l20.7-19.67
				c1.45-1.33,2.14-2.66,2.15-4.11c0.02-2.78-2.48-5.15-2.51-5.17L4.8,25.66L27.54,4.63l43.34,40.06
				c5.75,5.28,10.23,1.39,10.42,1.22l21.45-19.22L86.37,10.92L65.39,30.28l-3.35-3.16L86.44,4.6L109.5,26.8L84.6,49.12
				c-2.74,2.46-9.84,5.36-17.06-1.26l-40-36.97L11.52,25.7l40.01,38.06c0.13,0.12,3.9,3.63,3.89,8.29c0,2.68-1.19,5.13-3.55,7.28
				L27.77,102.24z"/>
			<path class="st6" d="M85.14,101.92L61.36,79.71L85.14,57.5l23.77,22.21L85.14,101.92z M68.1,79.71l17.04,15.92l17.04-15.92
				L85.14,63.79L68.1,79.71z"/>
		</g>
		<polygon class="st6" points="168.27,68.85 162.17,68.85 150.04,54.93 143.72,60.9 143.72,68.85 139.02,68.85 139.02,37.95 
			143.72,37.95 143.72,55.11 161.53,37.95 168.05,37.95 153.38,51.8 		"/>
		<rect x="236.33" y="37.95" class="st6" width="4.7" height="30.9"/>
		<rect x="314.02" y="37.95" class="st6" width="4.7" height="30.9"/>
		<polygon class="st6" points="415.85,68.85 391.4,68.85 391.4,37.95 415.63,37.95 415.63,42.14 396.1,42.14 396.1,51.21 
			413.66,51.21 413.66,55.39 396.1,55.39 396.1,64.67 415.85,64.67 		"/>
		<polygon class="st6" points="514.95,68.85 509.16,68.85 498.86,56.36 488.59,68.85 482.84,68.85 496,53.12 483.27,37.95 
			489.07,37.95 498.94,49.84 508.77,37.95 514.52,37.95 501.83,53.08 		"/>
	</g>
</g>
</svg>
