<?xml version="1.0" standalone="no"?>
<!DOCTYPE svg PUBLIC "-//W3C//DTD SVG 20010904//EN"
 "http://www.w3.org/TR/2001/REC-SVG-20010904/DTD/svg10.dtd">
<svg version="1.0" xmlns="http://www.w3.org/2000/svg"
 width="266.000000pt" height="306.000000pt" viewBox="0 0 266.000000 306.000000"
 preserveAspectRatio="xMidYMid meet">

<g transform="translate(0.000000,306.000000) scale(0.100000,-0.100000)"
fill="#000000" stroke="none">
<path d="M337 2749 c-153 -149 -276 -275 -275 -280 2 -5 244 -254 538 -554
294 -301 543 -561 552 -578 9 -18 17 -54 18 -81 0 -48 -2 -50 -87 -140 -156
-163 -458 -466 -464 -466 -3 0 -93 91 -200 202 l-194 201 233 226 232 226 -44
44 -45 45 -273 -271 -272 -271 280 -290 279 -291 316 317 c349 351 359 364
359 474 0 131 14 115 -939 1080 l-125 128 194 188 195 189 502 -496 c568 -561
575 -566 702 -565 109 0 127 14 473 345 172 165 313 304 313 309 0 5 -125 137
-278 294 l-279 286 -291 -286 c-161 -157 -293 -291 -295 -298 -1 -6 16 -29 38
-51 l40 -39 253 252 253 253 197 -204 197 -205 -223 -213 c-122 -118 -247
-237 -278 -266 -68 -63 -108 -73 -177 -48 -49 18 -62 31 -902 863 l-246 243
-277 -272z"/>
<path d="M1725 1350 l-290 -290 290 -290 290 -290 290 290 290 290 -290 290
-290 290 -290 -290z m495 -495 l-205 -205 -205 205 -205 205 205 205 205 205
205 -205 205 -205 -205 -205z"/>
<path d="M60 151 c0 -92 3 -111 15 -111 10 0 15 10 15 28 0 16 9 37 21 48 20
18 21 17 60 -29 23 -27 49 -47 61 -47 16 0 12 9 -26 54 -25 29 -46 57 -46 62
0 4 21 30 47 56 38 39 43 48 27 48 -11 0 -46 -27 -79 -60 l-60 -61 -5 57 c-3
33 -10 59 -17 62 -10 3 -13 -23 -13 -107z"/>
<path d="M720 150 c0 -67 4 -110 10 -110 6 0 10 43 10 110 0 67 -4 110 -10
110 -6 0 -10 -43 -10 -110z"/>
<path d="M1240 150 c0 -91 3 -110 15 -110 12 0 15 19 15 110 0 91 -3 110 -15
110 -12 0 -15 -19 -15 -110z"/>
<path d="M1767 253 c-4 -3 -7 -53 -7 -110 l0 -103 85 0 c101 0 115 18 18 22
l-68 3 -3 33 -3 32 60 0 c48 0 61 3 61 15 0 12 -13 15 -60 15 l-60 0 0 35 0
35 65 0 c51 0 65 3 65 15 0 12 -15 15 -73 15 -41 0 -77 -3 -80 -7z"/>
<path d="M2390 254 c0 -3 18 -29 40 -56 l40 -50 -32 -42 c-17 -22 -36 -47 -41
-53 -7 -9 -4 -13 9 -13 11 0 32 18 48 40 17 22 32 40 35 40 3 0 19 -18 34 -40
17 -24 36 -40 48 -40 17 0 14 8 -22 55 l-41 55 42 52 c52 66 33 81 -22 17
l-39 -44 -37 43 c-32 37 -62 54 -62 36z"/>
</g>
</svg>
